<?xml version="1.0" encoding="UTF-8" standalone="no" ?>
<!DOCTYPE svg PUBLIC "-//W3C//DTD SVG 1.1//EN" "http://www.w3.org/Graphics/SVG/1.1/DTD/svg11.dtd">
<svg xmlns="http://www.w3.org/2000/svg" xmlns:xlink="http://www.w3.org/1999/xlink" version="1.1" width="1200" height="450" viewBox="-30 113 1200 450" xml:space="preserve">
<desc>Created with Fabric.js 5.2.4</desc>
<defs>
</defs>
<rect x="0" y="0" width="100%" height="100%" fill="transparent"></rect>
<g transform="matrix(1 0 0 1 600 225)" id="ed293f4e-15b4-4c8e-b869-c1e5f5386ef2"  >
<rect style="stroke: none; stroke-width: 1; stroke-dasharray: none; stroke-linecap: butt; stroke-dashoffset: 0; stroke-linejoin: miter; stroke-miterlimit: 4; fill: rgb(255,255,255); fill-rule: nonzero; opacity: 1; visibility: hidden;" vector-effect="non-scaling-stroke"  x="-600" y="-225" rx="0" ry="0" width="1200" height="450" />
</g>
<g transform="matrix(Infinity NaN NaN Infinity 0 0)" id="87bb84b2-c660-4715-a982-da87f6129712"  >
</g>
<g transform="matrix(NaN NaN NaN NaN 0 0)"  >
<g style=""   >
</g>
</g>
<g transform="matrix(6.62 0 0 6.62 567.65 337.76)"  >
<g style="opacity: 1;"   >
		<g transform="matrix(0.44 0 0 0.44 -63.47 0)" id="SvgjsG6774"  >
<rect style="stroke: none; stroke-width: 1; stroke-dasharray: none; stroke-linecap: butt; stroke-dashoffset: 0; stroke-linejoin: miter; stroke-miterlimit: 4; fill: rgb(59,130,246); fill-rule: nonzero; opacity: 1;" vector-effect="non-scaling-stroke"  x="-60.5" y="-73" rx="10" ry="10" width="121" height="146" />
</g>
		<g transform="matrix(0.58 0 0 0.58 -57.75 -13.81)" id="SvgjsG6775"  >
<path style="stroke: none; stroke-width: 1; stroke-dasharray: none; stroke-linecap: butt; stroke-dashoffset: 0; stroke-linejoin: miter; stroke-miterlimit: 4; fill: rgb(255,255,255); fill-rule: nonzero; opacity: 1;" vector-effect="non-scaling-stroke"  transform=" translate(-60.29, -26.61)" d="M 63.738 11.716 C 62.391999999999996 10.965 60.731 11.001 58.99 11.677999999999999 C 59.694 11.713 60.359 11.888 60.959 12.222999999999999 C 64.57300000000001 14.238999999999999 64.556 21.161 60.918000000000006 27.682 C 60.25000000000001 28.88 59.581 30.076999999999998 58.91400000000001 31.275 C 57.64500000000001 33.549 55.72100000000001 36 54.84700000000001 38.436 C 54.63600000000001 39.023 54.037000000000006 41.186 54.15800000000001 41.709 C 54.61600000000001 43.7 58.56500000000001 36.376000000000005 58.839000000000006 35.885000000000005 C 60.459 32.982000000000006 62.07900000000001 30.078000000000003 63.697 27.175000000000004 C 67.334 20.653 67.352 13.731 63.738 11.716 z" stroke-linecap="round" />
</g>
		<g transform="matrix(0.58 0 0 0.58 -61.36 19.91)" id="SvgjsG6775"  >
<path style="stroke: none; stroke-width: 1; stroke-dasharray: none; stroke-linecap: butt; stroke-dashoffset: 0; stroke-linejoin: miter; stroke-miterlimit: 4; fill: rgb(255,255,255); fill-rule: nonzero; opacity: 1;" vector-effect="non-scaling-stroke"  transform=" translate(-54.1, -84.51)" d="M 76.843 90.36 C 76.274 90.36 75.77300000000001 90.246 75.33 90.019 C 73.857 89.26100000000001 73.51599999999999 87.52900000000001 73.18599999999999 85.851 C 72.88999999999999 84.34 72.61 82.913 71.607 82.394 C 70.107 81.619 67.06 82.113 65.238 82.412 L 65.04 82.444 C 63.389 82.71300000000001 61.623000000000005 83.261 59.75300000000001 83.843 C 57.24300000000001 84.622 54.650000000000006 85.429 52.27400000000001 85.52600000000001 L 51.30800000000001 85.56500000000001 L 51.38400000000001 84.60300000000001 C 51.42700000000001 84.058 51.67700000000001 83.489 51.943000000000005 82.88300000000001 C 52.48800000000001 81.644 52.663000000000004 81.03600000000002 52.264 80.72200000000001 C 51.429 80.06200000000001 48.902 80.322 44.759 81.49400000000001 L 44.35 81.61 C 43.989000000000004 81.71 43.468 81.872 42.833 82.07 C 37.245 83.80999999999999 31.073 85.52 28.54 83.76499999999999 C 27.854 83.28799999999998 27.465 82.58199999999998 27.415 81.71999999999998 C 27.387999999999998 81.24799999999999 27.749 80.84299999999999 28.221999999999998 80.81599999999999 C 28.698999999999998 80.81299999999999 29.098999999999997 81.14899999999999 29.127 81.62299999999999 C 29.145999999999997 81.96099999999998 29.262 82.181 29.517 82.356 C 31.576 83.783 39.384 81.34899999999999 42.324 80.43299999999999 C 42.982 80.228 43.521 80.05999999999999 43.894 79.95599999999999 L 44.292 79.84499999999998 C 47.973 78.80299999999998 51.615 78.02899999999998 53.327 79.37499999999999 C 54.833999999999996 80.56499999999998 54.039 82.37499999999999 53.513999999999996 83.57199999999999 C 53.495 83.61399999999999 53.479 83.65399999999998 53.459999999999994 83.69399999999999 C 55.294999999999995 83.43299999999999 57.29599999999999 82.80999999999999 59.24399999999999 82.204 C 61.08899999999999 81.63199999999999 62.995999999999995 81.038 64.76599999999999 80.75099999999999 L 64.963 80.719 C 67.127 80.366 70.39699999999999 79.835 72.395 80.871 C 74.13199999999999 81.76899999999999 74.52499999999999 83.76299999999999 74.86999999999999 85.521 C 75.13199999999999 86.854 75.38 88.115 76.115 88.494 C 76.75999999999999 88.825 77.957 88.602 79.58099999999999 87.861 C 80.01199999999999 87.66300000000001 80.51899999999999 87.851 80.716 88.284 C 80.913 88.71700000000001 80.723 89.223 80.29299999999999 89.42 C 78.913 90.05 77.782 90.36 76.843 90.36 z" stroke-linecap="round" />
</g>
		<g transform="matrix(0.58 0 0 0.58 -75.55 10.8)" id="SvgjsG6775"  >
<path style="stroke: none; stroke-width: 1; stroke-dasharray: none; stroke-linecap: butt; stroke-dashoffset: 0; stroke-linejoin: miter; stroke-miterlimit: 4; fill: rgb(255,255,255); fill-rule: nonzero; opacity: 1;" vector-effect="non-scaling-stroke"  transform=" translate(-29.73, -68.87)" d="M 33.647 60.737 C 30.732 59.778 28.424999999999997 58.161 27.204 56.449 C 21.104 69.593 18.366 79.68 20.935000000000002 81.113 C 23.596000000000004 82.597 31.164 74.347 39.481 61.501999999999995 C 37.76 61.658 35.726 61.42 33.647 60.737 z" stroke-linecap="round" />
</g>
		<g transform="matrix(0.58 0 0 0.58 -66.64 -8.72)" id="SvgjsG6775"  >
<path style="stroke: none; stroke-width: 1; stroke-dasharray: none; stroke-linecap: butt; stroke-dashoffset: 0; stroke-linejoin: miter; stroke-miterlimit: 4; fill: rgb(255,255,255); fill-rule: nonzero; opacity: 1;" vector-effect="non-scaling-stroke"  transform=" translate(-45.02, -35.34)" d="M 60.113 10.875 C 56.688 8.965 50.781 13.033999999999999 46.918 19.961 L 31.771 47.119 L 31.824 47.148 C 30.275000000000002 50.080000000000005 28.863000000000003 52.925000000000004 27.580000000000002 55.656000000000006 C 29.178 57.034000000000006 31.468000000000004 58.309000000000005 34.156 59.193000000000005 C 36.323 59.906000000000006 38.43 60.258 40.269999999999996 60.286 C 41.541999999999994 58.288000000000004 42.827999999999996 56.19 44.114 54.004000000000005 L 44.166 54.03300000000001 L 59.315 26.875000000000007 C 63.179 19.948 63.535 12.785 60.113 10.875 z" stroke-linecap="round" />
</g>
		<g transform="matrix(2.07 0 0 2.07 30.85 -7.82)" id="SvgjsG6776"  >
<path style="stroke: none; stroke-width: 1; stroke-dasharray: none; stroke-linecap: butt; stroke-dashoffset: 0; stroke-linejoin: miter; stroke-miterlimit: 4; fill: rgb(0,0,0); fill-rule: nonzero; opacity: 1;" vector-effect="non-scaling-stroke"  transform=" translate(-29.18, -13)" d="M 2.8476 17.9011 L 5 17.9011 L 5 8.1284 L 2.2995 8.1284 L 2.84763 8.54284 L 2.84763 17.901139999999998 z M 6.8449 7.34 L 6.8449 18.689999999999998 C 6.8449 19.43866 6.25666 20.013499999999997 5.508 20.013499999999997 L 1.0027 20.013499999999997 L 1.0027 17.901199999999996 L 1.0027 6.430199999999996 L 0.66848 6.015759999999996 L 5.50808 6.015759999999996 C 6.24337 6.015759999999996 6.84498 6.630729999999996 6.84498 7.339259999999996 z M 9.746026737967915 15.8021 L 11.631026737967915 15.8021 L 10.695196737967915 8.1283 z M 7.379676737967914 20.026738 L 9.050776737967915 6.430738000000002 L 8.716556737967915 6.029668000000002 L 12.286056737967915 6.029668000000002 L 14.010656737967915 20.026668 L 12.152356737967915 20.026668 L 11.898346737967916 17.914368 L 8.943846737967917 17.900999 L 9.438496737967917 18.288698999999998 L 9.224596737967916 20.026698999999997 L 7.379696737967916 20.026698999999997 z M 16.497363636363634 19.973262 L 14.652463636363635 19.973262 L 14.652463636363635 6.390261999999998 L 14.318243636363635 5.975821999999998 L 16.497343636363635 5.975821999999998 L 16.497343636363635 19.972821999999997 z M 17.21924893048128 6.016 L 19.398348930481284 6.016 L 19.398348930481284 17.901 L 22.473248930481283 17.901 L 22.473248930481283 20.0133 L 17.55344893048128 20.0133 L 17.55344893048128 19.999931 L 17.55344893048128 17.901031 L 17.55344893048128 6.417031 z M 20.240640160427805 6.003 L 22.379640160427805 6.003 L 23.863640160427806 11.9388 L 25.334240160427807 6.003 L 27.232640160427806 6.003 L 24.799440160427807 15.7356 L 24.772702160427805 15.85592 L 24.772702160427805 20.01372 L 22.941102160427803 20.01372 L 22.941102160427803 15.84262 L 22.9143641604278 15.73567 L 20.5881641604278 6.417470000000002 z M 29.86635133689839 11.9251 L 32.01875133689839 11.9251 L 32.01875133689839 8.0882 L 29.318251336898392 8.0882 L 29.866381336898392 8.502640000000001 L 29.866381336898392 11.92514 z M 33.850251336898395 7.313000000000001 L 33.850251336898395 12.7141 C 33.850251336898395 13.42266 33.2753813368984 14.0376 32.52675133689839 14.0376 L 29.318151336898392 14.0376 L 29.866281336898393 14.45204 L 29.866281336898393 19.98684 L 28.021381336898393 19.98684 L 28.021381336898393 6.390840000000001 L 27.687161336898395 5.976400000000001 L 32.526761336898396 5.976400000000001 C 33.2754213368984 5.976400000000001 33.8502613368984 6.564640000000001 33.8502613368984 7.313300000000001 z M 36.149708021390374 17.9011 L 38.302108021390374 17.9011 L 38.302108021390374 6.0031 L 40.14700802139038 6.0031 L 40.14700802139038 18.6771 C 40.14700802139038 19.42576 39.53203802139038 20.0006 38.823508021390374 20.0006 L 35.64170802139037 20.013969 C 34.89304802139037 20.013969 34.31820802139037 19.425729 34.31820802139037 18.677069 L 34.31820802139037 6.418068999999999 L 34.30483902139037 6.418068999999999 L 33.97061902139037 6.003628999999999 L 36.14971902139037 6.003628999999999 L 36.14971902139037 17.901629 z M 40.85561256684492 6.016 L 43.03471256684492 6.016 L 43.03471256684492 17.901 L 46.109612566844916 17.901 L 46.109612566844916 20.0133 L 41.189812566844914 20.0133 L 41.189812566844914 19.999931 L 41.189812566844914 17.901031 L 41.189812566844914 6.417031 z M 52.098935294117645 7.34 L 52.098935294117645 10.2277 L 50.26733529411764 10.2277 L 50.26733529411764 8.115400000000001 L 47.566835294117645 8.115400000000001 L 48.101595294117644 8.529840000000002 L 48.101595294117644 10.227740000000002 L 52.098895294117646 15.134140000000002 L 52.098895294117646 17.246440000000003 L 52.098895294117646 18.690340000000003 C 52.098895294117646 19.3989 51.52402529411765 20.013840000000002 50.775395294117644 20.013840000000002 L 47.59359529411764 20.013840000000002 C 46.84493529411764 20.013840000000002 46.27009529411764 19.398870000000002 46.27009529411764 18.690340000000003 L 46.27009529411764 15.709040000000002 L 48.10169529411764 15.709040000000002 L 48.10169529411764 17.90154 L 50.26749529411764 17.90154 L 50.26749529411764 15.789240000000001 L 46.270195294117634 10.882840000000002 L 46.270195294117634 7.340040000000002 C 46.270195294117634 6.591380000000002 46.84506529411763 6.016540000000002 47.59369529411764 6.016540000000002 L 50.77549529411764 6.016540000000002 C 51.52415529411764 6.016540000000002 52.09899529411764 6.5914100000000015 52.09899529411764 7.340040000000002 z M 52.76737775401069 6.43 L 52.433157754010686 6.01556 L 57.687157754010684 6.01556 L 57.687157754010684 8.12786 L 54.06415775401069 8.12786 L 54.61228775401069 8.542300000000001 L 54.61228775401069 11.951400000000001 L 56.778087754010684 11.951400000000001 L 56.778087754010684 14.077100000000002 L 54.06418775401068 14.077100000000002 L 54.61231775401068 14.478170000000002 L 54.61231775401068 17.90067 L 57.68721775401068 17.90067 L 57.68721775401068 20.012970000000003 L 52.76741775401068 20.012970000000003 L 52.76741775401068 17.90067 L 52.76741775401068 14.077170000000002 L 52.76741775401068 11.951470000000002 L 52.76741775401068 6.430070000000002 z" stroke-linecap="round" />
</g>
		<g transform="matrix(0.57 0 0 0.57 30.91 19.04)" id="SvgjsG6777"  >
<path style="stroke: none; stroke-width: 1; stroke-dasharray: none; stroke-linecap: butt; stroke-dashoffset: 0; stroke-linejoin: miter; stroke-miterlimit: 4; fill: rgb(0,0,0); fill-rule: nonzero; opacity: 1;" vector-effect="non-scaling-stroke"  transform=" translate(-104, -13.68)" d="M 1.26 20 C 1.1 20 1 19.88 1 19.74 L 1 7.759999999999998 C 1 7.619999999999998 1.1 7.499999999999998 1.26 7.499999999999998 L 5.8 7.499999999999998 C 7 7.499999999999998 8.1 7.759999999999998 9.059999999999999 8.299999999999999 C 10.02 8.819999999999999 10.759999999999998 9.559999999999999 11.299999999999999 10.52 C 11.819999999999999 11.459999999999999 12.1 12.54 12.1 13.74 C 12.1 14.96 11.82 16.04 11.28 16.98 C 10.739999999999998 17.94 9.979999999999999 18.68 9 19.2 C 8.04 19.74 6.92 20 5.7 20 L 1.2599999999999998 20 z M 4.1 17.2 L 5.859999999999999 17.2 C 6.4399999999999995 17.2 6.9799999999999995 17.06 7.4399999999999995 16.779999999999998 C 7.8999999999999995 16.479999999999997 8.28 16.08 8.54 15.559999999999997 C 8.799999999999999 15.039999999999996 8.94 14.439999999999998 8.94 13.759999999999996 C 8.94 13.099999999999996 8.799999999999999 12.479999999999997 8.52 11.959999999999996 C 8.24 11.419999999999995 7.859999999999999 11.019999999999996 7.38 10.719999999999995 C 6.9 10.439999999999996 6.34 10.279999999999996 5.74 10.279999999999996 L 4.1000000000000005 10.279999999999996 L 4.1000000000000005 17.199999999999996 z M 22.541000000000004 20 C 22.461000000000006 20 22.381000000000004 19.96 22.341000000000005 19.88 C 22.281000000000006 19.82 22.281000000000006 19.72 22.301000000000005 19.64 L 26.961000000000006 7.66 C 27.001000000000005 7.5600000000000005 27.101000000000006 7.5 27.201000000000004 7.5 L 29.881000000000004 7.5 C 29.981000000000005 7.5 30.081000000000003 7.56 30.121000000000002 7.66 L 34.701 19.64 C 34.721000000000004 19.72 34.721000000000004 19.8 34.661 19.88 C 34.621 19.959999999999997 34.541000000000004 20 34.461 20 L 31.680999999999997 20 C 31.580999999999996 20 31.480999999999998 19.94 31.441 19.84 L 30.701 18 L 26.201 18.02 L 25.461000000000002 19.84 C 25.421000000000003 19.94 25.321 20 25.221000000000004 20 L 22.541000000000004 20 z M 27.021 15.5 L 29.901 15.5 L 28.461 11.26 z M 46.362 20 C 46.222 20 46.102000000000004 19.88 46.102000000000004 19.74 L 46.102000000000004 7.759999999999998 C 46.102000000000004 7.619999999999998 46.222 7.499999999999998 46.362 7.499999999999998 L 48.962 7.499999999999998 C 49.102000000000004 7.499999999999998 49.222 7.619999999999998 49.222 7.759999999999998 L 49.222 19.74 C 49.222 19.88 49.102000000000004 20 48.962 20 L 46.362 20 z M 61.063 20 C 60.923 20 60.803000000000004 19.88 60.803000000000004 19.74 L 60.803000000000004 7.759999999999998 C 60.803000000000004 7.619999999999998 60.923 7.499999999999998 61.063 7.499999999999998 L 63.663000000000004 7.499999999999998 C 63.803000000000004 7.499999999999998 63.923 7.619999999999998 63.923 7.759999999999998 L 63.923 17.119999999999997 L 68.423 17.119999999999997 C 68.563 17.119999999999997 68.683 17.24 68.683 17.38 L 68.683 19.74 C 68.683 19.88 68.563 20 68.423 20 L 61.063 20 z M 83.16400000000002 20 C 83.02400000000002 20 82.92400000000002 19.88 82.92400000000002 19.74 L 82.92400000000002 14.979999999999999 L 78.68400000000003 7.879999999999999 C 78.64400000000002 7.799999999999999 78.64400000000002 7.699999999999999 78.70400000000002 7.619999999999999 C 78.74400000000003 7.539999999999999 78.82400000000003 7.499999999999999 78.92400000000002 7.499999999999999 L 81.52400000000002 7.499999999999999 C 81.62400000000001 7.499999999999999 81.70400000000002 7.539999999999999 81.74400000000001 7.639999999999999 L 84.46400000000001 12.079999999999998 L 87.12400000000001 7.639999999999998 C 87.16400000000002 7.559999999999998 87.24400000000001 7.499999999999998 87.34400000000001 7.499999999999998 L 89.96400000000001 7.499999999999998 C 90.04400000000001 7.499999999999998 90.14400000000002 7.539999999999998 90.18400000000001 7.619999999999998 C 90.224 7.699999999999998 90.22400000000002 7.799999999999998 90.18400000000001 7.879999999999998 L 86.02400000000002 14.899999999999999 L 86.02400000000002 19.74 C 86.02400000000002 19.88 85.90400000000001 20 85.76400000000001 20 L 83.16400000000002 20 z M 121.02600000000002 20 C 120.92600000000003 20 120.82600000000002 19.94 120.78600000000003 19.84 L 116.78600000000003 7.84 C 116.74600000000002 7.76 116.76600000000003 7.68 116.80600000000003 7.6 C 116.86600000000003 7.54 116.94600000000003 7.5 117.02600000000002 7.5 L 119.82600000000002 7.5 C 119.92600000000002 7.5 120.02600000000002 7.56 120.06600000000002 7.68 L 122.44600000000001 15.5 L 124.84600000000002 7.68 C 124.88600000000002 7.56 124.98600000000002 7.5 125.08600000000001 7.5 L 127.76600000000002 7.5 C 127.84600000000002 7.5 127.92600000000002 7.54 127.98600000000002 7.6 C 128.026 7.68 128.04600000000002 7.76 128.00600000000003 7.84 L 123.94600000000003 19.84 C 123.90600000000002 19.94 123.82600000000002 20 123.70600000000003 20 L 121.02600000000002 20 z M 139.86700000000002 20 C 139.72700000000003 20 139.60700000000003 19.88 139.60700000000003 19.74 L 139.60700000000003 7.759999999999998 C 139.60700000000003 7.619999999999998 139.72700000000003 7.499999999999998 139.86700000000002 7.499999999999998 L 142.467 7.499999999999998 C 142.607 7.499999999999998 142.727 7.619999999999998 142.727 7.759999999999998 L 142.727 19.74 C 142.727 19.88 142.607 20 142.467 20 L 139.86700000000002 20 z M 154.568 20 C 154.42800000000003 20 154.30800000000002 19.88 154.30800000000002 19.74 L 154.30800000000002 7.759999999999998 C 154.30800000000002 7.619999999999998 154.42800000000003 7.499999999999998 154.568 7.499999999999998 L 159.348 7.499999999999998 C 160.668 7.499999999999998 161.548 7.7799999999999985 162.328 8.359999999999998 C 163.40800000000002 9.139999999999997 163.848 10.619999999999997 163.348 11.879999999999997 C 163.08800000000002 12.519999999999998 162.64800000000002 12.859999999999998 162.048 13.179999999999998 C 162.90800000000002 13.299999999999997 163.448 13.859999999999998 163.768 14.259999999999998 C 164.228 14.859999999999998 164.468 15.579999999999998 164.468 16.419999999999998 C 164.468 17.52 164.028 18.419999999999998 163.188 19.06 C 162.368 19.68 161.248 20 159.868 20 L 154.56799999999998 20 z M 157.24800000000002 12.08 L 159.20800000000003 12.08 C 159.60800000000003 12.08 159.92800000000003 12 160.14800000000002 11.82 C 160.348 11.64 160.44800000000004 11.4 160.44800000000004 11.08 C 160.44800000000004 10.78 160.34800000000004 10.54 160.14800000000002 10.38 C 159.94800000000004 10.200000000000001 159.64800000000002 10.120000000000001 159.288 10.120000000000001 L 157.24800000000002 10.120000000000001 L 157.24800000000002 12.080000000000002 z M 157.24800000000002 17.54 L 159.58800000000002 17.54 C 160.18800000000002 17.54 160.64800000000002 17.419999999999998 160.98800000000003 17.18 C 161.28800000000004 16.96 161.44800000000004 16.66 161.44800000000004 16.24 C 161.44800000000004 15.859999999999998 161.28800000000004 15.579999999999998 160.98800000000003 15.359999999999998 C 160.66800000000003 15.139999999999997 160.22800000000004 15.019999999999998 159.66800000000003 15.019999999999998 L 157.24800000000005 15.019999999999998 L 157.24800000000005 17.54 z M 176.04900000000004 20 L 176.04900000000004 8.02 C 176.04900000000004 7.52 176.14900000000003 7.42 176.30900000000003 7.42 L 185.06900000000002 7.42 C 185.209 7.42 185.329 7.52 185.329 7.66 L 185.329 9.92 C 185.329 10.06 185.209 10.18 185.06900000000002 10.18 L 179.14900000000003 10.18 L 179.14900000000003 12.26 L 182.88900000000004 12.26 C 183.02900000000002 12.26 183.14900000000003 12.379999999999999 183.14900000000003 12.52 L 183.14900000000003 14.76 C 183.14900000000003 14.9 183.02900000000002 15.02 182.88900000000004 15.02 L 179.14900000000003 15.02 L 179.14900000000003 17.16 L 185.04900000000004 17.16 C 185.18900000000002 17.16 185.30900000000003 17.28 185.30900000000003 17.42 L 185.30900000000003 19.660000000000004 C 185.30900000000003 19.800000000000004 185.18900000000002 19.920000000000005 185.04900000000004 19.920000000000005 L 176.30900000000003 19.920000000000005 C 176.14900000000003 19.920000000000005 176.04900000000004 19.800000000000004 176.04900000000004 20.000000000000004 z M 202.25000000000003 20.12 C 201.29000000000002 20.12 200.33000000000004 19.94 199.41000000000003 19.580000000000002 C 198.49000000000004 19.240000000000002 197.67000000000002 18.740000000000002 196.99000000000004 18.14 C 196.91000000000003 18.060000000000002 196.89000000000004 17.94 196.93000000000004 17.84 L 197.63000000000002 15.46 C 197.67000000000002 15.38 197.73000000000002 15.32 197.81000000000003 15.32 C 197.89000000000004 15.3 197.97000000000003 15.32 198.03000000000003 15.38 C 199.09000000000003 16.380000000000003 200.29000000000002 17.28 201.79000000000002 17.36 C 202.19000000000003 17.38 202.63000000000002 17.4 203.01000000000002 17.28 C 204.19000000000003 16.900000000000002 203.69000000000003 15.700000000000001 202.81000000000003 15.340000000000002 C 202.51000000000002 15.220000000000002 202.09000000000003 15.080000000000002 201.55000000000004 14.920000000000002 C 200.75000000000003 14.700000000000001 200.09000000000003 14.46 199.59000000000003 14.220000000000002 C 199.05000000000004 13.980000000000002 198.59000000000003 13.600000000000003 198.19000000000003 13.100000000000001 C 197.81000000000003 12.580000000000002 197.61 11.900000000000002 197.61 11.080000000000002 C 197.61 10.300000000000002 197.81 9.620000000000001 198.21 9.040000000000003 C 198.61 8.460000000000004 199.17000000000002 8.000000000000004 199.87 7.700000000000003 C 200.57 7.400000000000002 201.39000000000001 7.240000000000003 202.31 7.240000000000003 C 203.13 7.240000000000003 203.93 7.360000000000003 204.73 7.620000000000003 C 205.51 7.860000000000003 206.20999999999998 8.200000000000003 206.82999999999998 8.600000000000003 C 206.92999999999998 8.680000000000003 206.96999999999997 8.800000000000002 206.91 8.920000000000003 L 206.25 11.160000000000004 C 206.23 11.240000000000004 206.17 11.280000000000003 206.09 11.300000000000004 C 206.03 11.320000000000004 205.95000000000002 11.320000000000004 205.89000000000001 11.280000000000005 C 204.99 10.720000000000004 204.09 10.040000000000004 203.03 9.900000000000006 C 202.33 9.800000000000006 201.27 9.840000000000005 201.03 10.680000000000005 C 200.73 11.760000000000005 202.31 12.040000000000004 203.03 12.260000000000005 C 203.83 12.500000000000005 204.49 12.740000000000006 205.01 12.980000000000006 C 205.54999999999998 13.240000000000006 206.03 13.640000000000006 206.41 14.140000000000006 C 206.81 14.660000000000005 207.01 15.360000000000007 207.01 16.200000000000006 C 207.01 17.020000000000007 206.79 17.720000000000006 206.37 18.320000000000007 C 205.97 18.92000000000001 205.39000000000001 19.360000000000007 204.67000000000002 19.680000000000007 C 203.95000000000002 19.960000000000008 203.15 20.120000000000008 202.25000000000003 20.120000000000008 z" stroke-linecap="round" />
</g>
</g>
</g>
</svg>